<?xml version="1.0" standalone="no"?>
<!DOCTYPE svg PUBLIC "-//W3C//DTD SVG 20010904//EN"
 "http://www.w3.org/TR/2001/REC-SVG-20010904/DTD/svg10.dtd">
<svg version="1.0" xmlns="http://www.w3.org/2000/svg"
 width="250.000000pt" height="250.000000pt" viewBox="0 0 250.000000 250.000000"
 preserveAspectRatio="xMidYMid meet">
<metadata>
Created by potrace 1.14, written by Peter Selinger 2001-2017
</metadata>
<g transform="translate(0.000000,250.000000) scale(0.100000,-0.100000)"
fill="#000000" stroke="none">
<path d="M0 1250 l0 -1250 1250 0 1250 0 0 1250 0 1250 -1250 0 -1250 0 0
-1250z m1228 567 c-7 -13 -110 -191 -228 -395 l-215 -372 -109 0 c-99 0 -108
2 -101 17 3 10 104 188 223 395 l217 377 113 1 113 0 -13 -23z m540 8 c2 -2
-27 -55 -64 -120 l-68 -116 -240 7 c-133 4 -242 7 -243 8 -1 1 29 54 65 119
l67 117 240 -6 c132 -4 241 -8 243 -9z m115 -96 c31 -36 57 -70 57 -74 0 -9
-130 -235 -136 -235 -1 0 -32 34 -67 76 l-65 77 27 46 c15 25 47 79 70 119 24
41 46 70 50 65 4 -4 33 -38 64 -74z m-205 -227 c24 -26 53 -60 65 -76 l21 -29
-139 6 c-76 4 -184 7 -239 7 l-101 0 -64 77 -64 76 239 -7 239 -6 43 -48z
m-490 -37 l63 -76 -147 -254 c-81 -140 -150 -255 -153 -255 -4 0 -35 34 -69
75 l-63 75 148 255 c81 140 149 255 153 255 3 0 34 -34 68 -75z m384 -383 l37
-7 -63 -110 -64 -110 -163 -3 c-90 -2 -201 0 -246 3 l-81 7 66 114 67 114 205
-1 c113 0 222 -3 242 -7z m143 -89 c31 -38 59 -73 61 -79 4 -8 -111 -221 -130
-241 -4 -5 -126 147 -126 157 0 15 123 229 132 230 3 0 32 -30 63 -67z m-867
-58 l63 -75 -105 0 -104 0 -49 58 c-87 102 -90 92 28 92 l104 0 63 -75z m647
-150 c11 -12 40 -46 65 -75 l44 -53 -369 7 -370 7 -43 47 c-24 26 -53 60 -64
75 l-21 29 369 -7 c368 -7 369 -7 389 -30z"/>
</g>
</svg>
